<?xml version="1.0"?>
<svg xmlns="http://www.w3.org/2000/svg" xmlns:xlink="http://www.w3.org/1999/xlink" version="1.1" id="Capa_1" x="0px" y="0px" viewBox="0 0 464.003 464.003" style="enable-background:new 0 0 464.003 464.003;" xml:space="preserve" width="512px" height="512px"><g><path style="fill:#F8C09C;" d="M71.992,344v19.776c-0.007,33.465,11.266,65.956,32,92.224h96  c0.02-26.023-10.128-51.025-28.28-69.672l-3.72-3.736V344H71.992z" data-original="#F8C09C"/><g>
	<path style="fill:#EF937D;" d="M79.992,344h-8v19.776c-0.007,33.465,11.266,65.956,32,92.224h8   c-20.734-26.268-32.007-58.759-32-92.224V344z" data-original="#EF937D"/>
	<path style="fill:#EF937D;" d="M171.712,386.328c5.553,5.665,10.372,12.005,14.344,18.872l2.736-3.704   c12.472-16.573,19.211-36.755,19.2-57.496h-40v38.592L171.712,386.328z" data-original="#EF937D"/>
</g><path style="fill:#4FB86A;" d="M287.992,24l-40,40.144V16h-192v336h64h56h72v-48l160-160.576L287.992,24z" data-original="#4FB86A"/><path style="fill:#F6F6E7;" d="M87.992,48h128v272h-128V48z" data-original="#F6F6E7"/><circle style="fill:#4FB86A;" cx="151.992" cy="168" r="64" data-original="#4FB86A"/><g>
	<path style="fill:#F6F6E7;" d="M201.912,128h-1.92c-22.091,0-40,17.909-40,40s17.909,40,40,40h1.92   C220.686,184.638,220.686,151.362,201.912,128z" data-original="#F6F6E7"/>
	<circle style="fill:#F6F6E7;" cx="119.992" cy="168" r="32" data-original="#F6F6E7"/>
	<path style="fill:#F6F6E7;" d="M303.992,80l-16-16l-40,40v144l112-112l-16-16L303.992,80z" data-original="#F6F6E7"/>
</g><path style="fill:#F8C09C;" d="M160.96,295.144c-9.154-9.371-24.172-9.547-33.543-0.393c-0.133,0.13-0.264,0.261-0.393,0.393  c-4.514,4.605-7.039,10.799-7.032,17.248V376h48v-63.608C168,305.943,165.474,299.749,160.96,295.144z" data-original="#F8C09C"/><path style="fill:#F6F6E7;" d="M155.304,306.096c-6.105-6.247-16.118-6.363-22.366-0.258c-0.087,0.085-0.173,0.171-0.258,0.258  c-3.011,3.072-4.694,7.203-4.688,11.504V328h32v-10.4C159.998,313.299,158.315,309.168,155.304,306.096L155.304,306.096z" data-original="#F6F6E7"/><path d="M247.992,0h-192c-4.418,0-8,3.582-8,8v336c0,4.418,3.582,8,8,8h8v11.784c-0.065,35.29,11.832,69.559,33.752,97.216  c2.761,3.451,7.797,4.009,11.248,1.248c3.451-2.761,4.009-7.797,1.248-11.248l0,0c-19.657-24.814-30.32-55.56-30.248-87.216V352h32  v54.728c0,4.418,3.582,8,8,8s8-3.582,8-8v-94.592c0-8.837,7.163-16,16-16s16,7.163,16,16v70.456c0,2.114,0.837,4.141,2.328,5.64  l3.712,3.736c16.712,17.116,26.035,40.11,25.96,64.032c0,4.418,3.582,8,8,8s8-3.582,8-8c-0.007-17.53-4.25-34.799-12.368-50.336  c11.4-15.745,18.299-34.296,19.96-53.664h32.408c4.418,0,8-3.582,8-8v-44.688L413.664,141.08c3.126-3.122,3.129-8.188,0.006-11.314  c-0.002-0.002-0.004-0.004-0.006-0.006l-120-119.432c-3.124-3.123-8.188-3.123-11.312,0L255.992,36.8V8  C255.992,3.582,252.41,0,247.992,0L247.992,0z M186.224,391.04c-2.713-3.646-5.669-7.104-8.848-10.352l-1.384-1.4V352h23.496  C198.099,365.854,193.562,379.207,186.224,391.04L186.224,391.04z M239.992,336h-64v-23.864  c0.19-17.619-13.939-32.056-31.558-32.246c-14.746-0.159-27.68,9.81-31.282,24.11h-17.16v-32c0-4.418-3.582-8-8-8  c-4.418,0-8,3.582-8,8v40c0,4.418,3.582,8,8,8h24v16h-48V16h176V336z M287.992,27.312L396.68,135.456L255.992,276.632v-25.32  l109.656-109.656c3.123-3.124,3.123-8.188,0-11.312l-16-16c-3.178-3.07-8.242-2.982-11.312,0.196c-2.994,3.1-2.994,8.015,0,11.116  L348.68,136l-92.688,92.688V107.312l32-32l10.344,10.344c3.178,3.07,8.242,2.982,11.312-0.196c2.995-3.1,2.995-8.016,0-11.116  l-16-16c-3.124-3.123-8.188-3.123-11.312,0l-26.344,26.344v-25.24L287.992,27.312z" data-original="#000000" class="active-path" style="fill:#1976D2" data-old_color="#000000"/><path d="M151.992,240c39.764,0,72-32.236,72-72s-32.236-72-72-72s-72,32.236-72,72C80.036,207.746,112.246,239.956,151.992,240z   M151.992,224c-15.026,0.002-29.418-6.054-39.92-16.8c17.598,3.589,35.411-5.094,43.424-21.168  c5.25,12.937,15.876,22.944,29.104,27.408C175.112,220.302,163.702,223.997,151.992,224z M207.992,168  c0.007,11.372-3.472,22.474-9.968,31.808c-17.567-0.965-31.025-15.989-30.06-33.556c0.891-16.218,13.842-29.169,30.06-30.06  C204.52,145.526,207.999,156.628,207.992,168z M151.992,112c11.709,0.003,23.12,3.698,32.608,10.56  c-13.228,4.464-23.854,14.471-29.104,27.408c-8.013-16.074-25.826-24.757-43.424-21.168  C122.575,118.054,136.966,111.998,151.992,112z M119.992,144c13.255,0,24,10.745,24,24s-10.745,24-24,24s-24-10.745-24-24  S106.737,144,119.992,144z" data-original="#000000" class="active-path" style="fill:#1976D2" data-old_color="#000000"/><path d="M87.992,88c4.418,0,8-3.582,8-8V48h8c4.418,0,8-3.582,8-8s-3.582-8-8-8h-16c-4.418,0-8,3.582-8,8v40  C79.992,84.418,83.574,88,87.992,88z" data-original="#000000" class="active-path" style="fill:#1976D2" data-old_color="#000000"/><path d="M215.992,264c-4.418,0-8,3.582-8,8v32h-8c-4.418,0-8,3.582-8,8s3.582,8,8,8h16c4.418,0,8-3.582,8-8v-40  C223.992,267.582,220.41,264,215.992,264z" data-original="#000000" class="active-path" style="fill:#1976D2" data-old_color="#000000"/><path d="M199.992,48h8v32c0,4.418,3.582,8,8,8s8-3.582,8-8V40c0-4.418-3.582-8-8-8h-16c-4.418,0-8,3.582-8,8S195.574,48,199.992,48z  " data-original="#000000" class="active-path" style="fill:#1976D2" data-old_color="#000000"/></g> </svg>
